<svg  xmlns="http://www.w3.org/2000/svg" xml:space="preserve" version="1.1" preserveAspectRatio="none"
      viewBox="0 0 149 149">
    <path fill="#586471" d="M 59.98261,147.66765 C 22.171201,140.24194 -5.342467,101.06635 0.88014401,63.514087 7.58328,23.061954 46.274147,-5.573301 85.455818,0.91931296 125.76619,7.598957 154.5415,46.323603 148.09642,85.218454 141.10878,127.38757 101.10054,155.74274 59.98261,147.66765 Z m 20.997968,-50.359896 0,-17.91681 6.34411,0 c 6.22562,0 6.35588,-0.12329 6.97352,-6.59983 0.34617,-3.6299 0.30099,-6.928223 -0.10038,-7.329601 -0.40138,-0.401379 -3.53946,-0.72978 -6.97352,-0.72978 -6.16724,0 -6.24373,-0.0775 -6.24373,-6.325234 0,-6.644972 2.13359,-8.257959 10.9944,-8.311732 3.18603,-0.01933 3.6648,-0.873393 3.6648,-6.537445 l 0,-6.515203 -8.5512,0.006 c -14.95952,0.01075 -22.396014,7.074764 -22.396014,21.274416 0,6.391495 -0.01797,6.409168 -6.515204,6.409168 l -6.515203,0 0,7.329601 0,7.32961 6.515203,0 6.515204,0 0,17.91681 0,17.916806 8.144014,0 8.144,0 0,-17.916806 z" />
</svg>
