<svg  xmlns="http://www.w3.org/2000/svg" xml:space="preserve" version="1.1" preserveAspectRatio="none"
      viewBox="0 0 149 149">
    <path fill="#586471" d="m59.983 147.67c-37.812-7.43-65.326-46.6-59.103-84.156 6.7033-40.452 45.394-69.087 84.576-62.595 40.314 6.68 69.084 45.405 62.644 84.299-6.99 42.172-47 70.522-88.117 62.452zm12.528-22.996c1.137-1.137 1.9546-6.5876 1.9546-13.03 0-14.727 2.9839-14.261 3.5934 0.56232 0.36312 8.8307 1.1473 12.058 3.2508 13.38 3.38 2.1237 5.9075 0.11255 3.2271-2.5678-2.3704-2.3704-2.6554-21.464-0.29861-20.007 0.89584 0.55366 1.6288 5.3472 1.6288 10.652 0 8.9773 0.28739 9.7178 4.1479 10.687 5.0659 1.2715 7.4795-0.62604 3.5754-2.8109-2.2975-1.2858-2.8368-3.8763-2.8368-13.627 0-7.0432-0.74805-12.501-1.8027-13.153-2.4576-1.5189 1.4492-3.907 6.4448-3.9396 2.1366-0.0138 6.2098-2.4071 9.2197-5.4169 9.1413-9.1413 11.129-25.027 4.4196-35.328-1.4586-2.2396-2.4535-6.0416-2.2107-8.449 0.5309-5.2643-2.2139-10.946-5.0579-10.47-1.1299 0.18926-3.8827 1.3467-6.1174 2.5722-5.4398 2.9831-35.161 3.3677-40.729 0.52704-2.2396-1.1425-5.7212-2.0818-7.7368-2.0873-3.2633-0.009-3.6648 0.79927-3.6648 7.3769 0 4.2448-1.1924 9.2068-2.8033 11.665-3.7579 5.7353-4.2713 10.917-2.014 20.327 2.4634 10.269 8.829 16.952 18.455 19.376 6.4561 1.6257 7.2979 2.279 5.5892 4.3378-5.0896 6.1326-12.183 5.2423-18.093-2.2712-1.6498-2.0973-4.4123-3.8133-6.1389-3.8133-3.6063 0-4.2342 2.9397-0.90119 4.2187 1.231 0.47238 3.6131 3.413 5.2936 6.5347 2.9479 5.4761 4.8782 6.5403 13.643 7.5218 3.6042 0.40361 4.0095 1.1109 3.5276 6.1568-0.29945 3.1354-1.2156 6.3971-2.036 7.2482-2.3484 2.4363-1.7529 4.1534 1.4403 4.1534 4.9133 0 6.841-3.507 6.841-12.446 0-4.6951 0.82845-9.0485 1.841-9.6743 2.0324-1.2561 1.2418 15.699-0.97444 20.898-1.4298 3.3541 2.246 3.9727 5.3229 0.89586z" />
</svg>
