<svg  xmlns="http://www.w3.org/2000/svg" xml:space="preserve" version="1.1" preserveAspectRatio="none"
      viewBox="0 0 149 149">
    <path fill="#586471" d="m74.5 0a74.5 74.5 0 0 0 -74.5 74.5 74.5 74.5 0 0 0 74.5 74.5 74.5 74.5 0 0 0 74.5 -74.5 74.5 74.5 0 0 0 -74.5 -74.5zm18.367 35.68c5.638 0 10.733 2.378 14.303 6.187 4.47-0.878 8.67-2.512 12.45-4.758-1.46 4.574-4.57 8.419-8.62 10.844 3.97-0.474 7.75-1.528 11.26-3.088-2.62 3.932-5.95 7.382-9.79 10.158 0.04 0.841 0.06 1.685 0.06 2.536 0 25.898-19.715 55.761-55.762 55.761-11.069 0-21.369-3.25-30.043-8.81 1.534 0.19 3.096 0.28 4.677 0.28 9.18 0 17.633-3.13 24.34-8.392-8.574-0.161-15.812-5.825-18.306-13.609 1.198 0.226 2.425 0.344 3.689 0.344 1.788 0 3.517-0.234 5.164-0.686-8.966-1.801-15.721-9.72-15.721-19.217v-0.248c2.645 1.469 5.665 2.351 8.877 2.452-5.258-3.514-8.716-9.512-8.716-16.311 0-3.592 0.964-6.96 2.652-9.855 9.666 11.856 24.107 19.659 40.396 20.478-0.332-1.437-0.506-2.935-0.506-4.469 0-10.826 8.776-19.597 19.596-19.597z" />
</svg>