<svg  xmlns="http://www.w3.org/2000/svg" xml:space="preserve" version="1.1" preserveAspectRatio="none" viewBox="0 0 149 149">
    <path fill="#586471" d="m61.154 148.12c-15.165-2.74-27.678-9.39-39.114-20.8-7.127-7.1-10.337-11.43-14.191-19.14-5.6337-11.254-7.8117-20.497-7.8486-33.306-0.038012-13.261 2.3435-23.183 8.3609-34.834 3.9907-7.726 7.8747-12.846 14.766-19.465 14.211-13.648 31.509-20.575 51.381-20.575 19.911 0 37.158 6.9058 51.381 20.572 6.8934 6.6244 10.777 11.744 14.766 19.468 6.0821 11.777 8.4214 21.628 8.344 35.145-0.059 10.371-1.4354 17.789-4.9314 26.58-4.3231 10.87-9.4004 18.35-18.189 26.795-10.966 10.538-23.69 17.013-38.508 19.597-6.8285 1.1909-19.518 1.1731-26.217-0.0366zm17.098-41.607c1.0564-0.53245 1.7109-1.5365 2.0278-3.1106 0.25738-1.2783 0.67854-3.3497 0.93592-4.603 0.90928-4.4275 2.0197-4.1812 8.1369 1.8048 3.0441 2.9788 6.3025 5.7079 7.2409 6.0646 2.2226 0.84501 16.488 0.8402 18.916-0.006 1.0334-0.36025 2.2022-1.3643 2.5971-2.2312 1.1835-2.5975-0.93873-6.1914-7.9616-13.483-3.5513-3.687-6.3012-7.0662-6.2881-7.727 0.013-0.64572 2.5262-4.5298 5.5849-8.6317 5.7763-7.7457 8.2966-11.912 8.9898-14.862 0.31598-1.3438 0.062-2.0736-1.1401-3.2757-1.499-1.499-1.8162-1.5467-10.281-1.5467-4.8118 0-9.3779 0.29595-10.167 0.65902-0.95888 0.44088-2.6123 3.0738-4.9959 7.9553-3.6697 7.5154-8.7421 14.736-10.048 14.304-0.51617-0.17098-0.83484-3.4844-1.0523-10.942-0.41569-14.253 0.26248-13.536-12.795-13.536-9.6075 0-9.645 0.006-11.3 1.6616-1.9022 1.9028-1.6809 3.3614 0.64397 4.2454 2.192 0.8334 2.8548 2.4687 3.2305 7.9703 0.43845 6.4198-0.30248 10.456-1.9193 10.456-1.651 0-5.7144-5.8793-9.9513-14.398-2.4713-4.9691-3.8887-7.1167-5.0444-7.6433-0.9157-0.41722-4.5304-0.73232-8.4008-0.73232-12.363 0-12.68 0.741-6.0145 14.106 11.372 22.804 21.986 34.292 34.477 37.315 4.6223 1.1188 12.528 1.2193 14.579 0.18525z"/>
</svg>